# Blender 5.1.1
# www.blender.org
mtllib medium_platform.mtl
o Cube
v 0.782019 0.344024 -0.524073
v 0.826645 0.128534 -0.568172
v 0.782019 0.344024 0.524073
v 0.826645 0.128534 0.568172
v -0.782019 0.344024 -0.524073
v -0.826645 0.128534 -0.568172
v -0.782019 0.344024 0.524073
v -0.826645 0.128534 0.568172
v -0.391324 -0.067935 -0.304826
v -0.391324 -0.067935 0.304826
v 0.391324 -0.067935 -0.304826
v 0.391324 -0.067935 0.304826
v 1.098959 0.300081 0.736471
v -1.098959 0.300081 0.736471
v 1.098959 0.300081 -0.736471
v -1.098959 0.300081 -0.736471
v -1.136636 0.128534 -0.000000
v -0.000000 0.128534 -0.781236
v 1.007945 0.230650 -0.677252
v -1.007945 0.230650 0.677252
v 1.007945 0.230650 0.677252
v -1.007945 0.230650 -0.677252
v -0.000000 0.300081 1.012648
v 1.511068 0.300081 0.000000
v -0.000000 0.128534 0.781236
v -1.511068 0.300081 0.000000
v 0.000000 0.300081 -1.012648
v 1.136636 0.128534 0.000000
v -0.451621 -0.083569 0.000000
v 0.000000 -0.083569 -0.358934
v -0.000000 -0.083569 0.358934
v 0.451621 -0.083569 0.000000
v 0.602318 0.010242 -0.441542
v -0.602318 0.010242 -0.441542
v -0.602318 0.010242 0.441542
v 0.602318 0.010242 0.441542
v 0.000000 0.345334 0.631138
v 0.941780 0.345334 -0.000000
v -0.941780 0.345334 0.000000
v 0.000000 0.345334 -0.631138
v 1.034613 0.334040 0.693350
v -1.034613 0.334040 0.693350
v 1.034613 0.334040 -0.693350
v -1.034613 0.334040 -0.693350
v -0.000000 0.348082 0.000000
v -0.000000 0.230650 0.931222
v -1.385925 0.230650 0.000000
v 0.000000 0.008700 -0.604819
v 1.385925 0.230650 -0.000000
v -0.000000 0.230650 -0.931222
v 0.000000 -0.116379 -0.000000
v -0.000000 0.008700 0.604819
v -0.823272 0.008700 0.000000
v 0.823272 0.008700 -0.000000
v 0.000000 0.334170 0.952401
v 1.421167 0.334170 0.000000
v -1.421167 0.334170 -0.000000
v -0.000000 0.334170 -0.952401
vn 0.0026 1.0000 -0.0039
vn -0.0026 1.0000 -0.0039
vn -0.0026 1.0000 0.0039
vn 0.0026 1.0000 0.0039
vn 0.1402 -0.8229 0.5506
vn 0.1607 -0.7524 0.6388
vn -0.1607 -0.7524 0.6388
vn -0.1402 -0.8229 0.5506
vn -0.3758 -0.9032 0.2076
vn -0.4696 -0.8430 0.2625
vn -0.4696 -0.8430 -0.2625
vn -0.3758 -0.9032 -0.2076
vn -0.1440 -0.8271 -0.5433
vn 0.1440 -0.8271 -0.5433
vn 0.0950 -0.9277 -0.3609
vn -0.0950 -0.9277 -0.3609
vn 0.3758 -0.9032 -0.2076
vn 0.4696 -0.8430 -0.2625
vn 0.4696 -0.8430 0.2625
vn 0.3758 -0.9032 0.2076
vn -0.1402 -0.8229 -0.5506
vn -0.1607 -0.7524 -0.6388
vn 0.1607 -0.7524 -0.6388
vn 0.1402 -0.8229 -0.5506
vn -0.0622 -0.9950 -0.0783
vn 0.0622 -0.9950 -0.0783
vn 0.0622 -0.9950 0.0783
vn -0.0622 -0.9950 0.0783
vn 0.1440 -0.8271 0.5433
vn -0.1440 -0.8271 0.5433
vn -0.0950 -0.9277 0.3609
vn 0.0950 -0.9277 0.3609
vn -0.3597 -0.9134 0.1905
vn -0.3597 -0.9134 -0.1905
vn -0.2533 -0.9602 -0.1176
vn -0.2533 -0.9602 0.1176
vn 0.3597 -0.9134 -0.1905
vn 0.3597 -0.9134 0.1905
vn 0.2533 -0.9602 0.1176
vn 0.2533 -0.9602 -0.1176
vn 0.0086 0.9992 0.0387
vn -0.0086 0.9992 0.0387
vn -0.1232 0.8624 0.4910
vn 0.1232 0.8624 0.4910
vn 0.0259 0.9996 -0.0128
vn 0.0259 0.9996 0.0128
vn 0.3496 0.9163 0.1954
vn 0.3496 0.9163 -0.1954
vn -0.0259 0.9996 0.0128
vn -0.0259 0.9996 -0.0128
vn -0.3496 0.9163 -0.1954
vn -0.3496 0.9163 0.1954
vn -0.0086 0.9992 -0.0387
vn 0.0086 0.9992 -0.0387
vn 0.1232 0.8624 -0.4910
vn -0.1232 0.8624 -0.4910
vt 0.687500 0.562500
vt 0.750000 0.548804
vt 0.750000 0.625000
vt 0.673804 0.625000
vt 0.812500 0.562500
vt 0.826196 0.625000
vt 0.812500 0.687500
vt 0.750000 0.701196
vt 0.687500 0.687500
vt 0.416667 0.750000
vt 0.504340 0.750000
vt 0.504340 0.875000
vt 0.413194 0.875000
vt 0.625000 0.750000
vt 0.625000 0.875000
vt 0.625000 1.000000
vt 0.500000 1.000000
vt 0.375000 1.000000
vt 0.375000 0.000000
vt 0.500000 0.000000
vt 0.504340 0.125000
vt 0.413194 0.125000
vt 0.625000 0.000000
vt 0.625000 0.125000
vt 0.625000 0.250000
vt 0.505208 0.250000
vt 0.416667 0.250000
vt 0.416667 0.250000
vt 0.416667 0.375000
vt 0.380208 0.375000
vt 0.380208 0.250000
vt 0.416667 0.500000
vt 0.379340 0.500000
vt 0.375000 0.500000
vt 0.375000 0.375000
vt 0.375000 0.250000
vt 0.416667 0.500000
vt 0.504340 0.500000
vt 0.501736 0.625000
vt 0.416667 0.625000
vt 0.625000 0.500000
vt 0.592014 0.625000
vt 0.505208 0.375000
vt 0.416667 0.375000
vt 0.625000 0.375000
vt 0.125000 0.500000
vt 0.250000 0.500000
vt 0.246528 0.625000
vt 0.125000 0.625000
vt 0.340278 0.625000
vt 0.375000 0.750000
vt 0.250000 0.750000
vt 0.125000 0.750000
vt 0.416667 0.750000
vt 0.413194 0.875000
vt 0.379340 0.875000
vt 0.379340 0.750000
vt 0.375000 1.000000
vt 0.375000 1.000000
vt 0.375000 0.875000
vt 0.413194 0.125000
vt 0.379340 0.125000
vt 0.375000 0.000000
vt 0.375000 0.125000
vt 0.375000 0.000000
vt 0.416667 0.625000
vt 0.376736 0.625000
vt 0.750000 0.736497
vt 0.665895 0.708237
vt 0.833237 0.708237
vt 0.875000 0.750000
vt 0.750000 0.750000
vt 0.673804 0.625000
vt 0.635031 0.625000
vt 0.665895 0.541763
vt 0.826196 0.625000
vt 0.861497 0.625000
vt 0.833237 0.541763
vt 0.875000 0.500000
vt 0.875000 0.625000
vt 0.750000 0.548804
vt 0.750000 0.513503
vt 0.750000 0.500000
s 0
usemtl Material
f 4/10/5 21/11/5 46/12/5 25/13/5
f 21/11/6 13/14/6 23/15/6 46/12/6
f 46/12/7 23/15/7 14/16/7 20/17/7
f 25/13/8 46/12/8 20/17/8 8/18/8
f 8/19/9 20/20/9 47/21/9 17/22/9
f 20/20/10 14/23/10 26/24/10 47/21/10
f 47/21/11 26/24/11 16/25/11 22/26/11
f 17/22/12 47/21/12 22/26/12 6/27/12
f 2/37/17 19/38/17 49/39/17 28/40/17
f 19/38/18 15/41/18 24/42/18 49/39/18
f 49/39/19 24/42/19 13/14/19 21/11/19
f 28/40/20 49/39/20 21/11/20 4/10/20
f 6/27/21 22/26/21 50/43/21 18/44/21
f 22/26/22 16/25/22 27/45/22 50/43/22
f 50/43/23 27/45/23 15/41/23 19/38/23
f 18/44/24 50/43/24 19/38/24 2/37/24
f 9/46/25 30/47/25 51/48/25 29/49/25
f 30/47/26 11/34/26 32/50/26 51/48/26
f 51/48/27 32/50/27 12/51/27 31/52/27
f 29/49/28 51/48/28 31/52/28 10/53/28
f 3/9/41 37/8/41 55/68/41 41/69/41
f 37/8/42 7/7/42 42/70/42 55/68/42
f 55/68/43 42/70/43 14/71/43 23/72/43
f 41/69/44 55/68/44 23/72/44 13/14/44
f 1/1/45 38/73/45 56/74/45 43/75/45
f 38/73/46 3/9/46 41/69/46 56/74/46
f 56/74/47 41/69/47 13/14/47 24/42/47
f 43/75/48 56/74/48 24/42/48 15/41/48
f 7/7/49 39/76/49 57/77/49 42/70/49
f 39/76/50 5/5/50 44/78/50 57/77/50
f 57/77/51 44/78/51 16/79/51 26/80/51
f 42/70/52 57/77/52 26/80/52 14/71/52
f 5/5/53 40/81/53 58/82/53 44/78/53
f 40/81/54 1/1/54 43/75/54 58/82/54
f 58/82/55 43/75/55 15/41/55 27/83/55
f 44/78/56 58/82/56 27/83/56 16/79/56
usemtl Material.001
f 1/1/1 40/2/1 45/3/1 38/4/1
f 40/2/2 5/5/2 39/6/2 45/3/2
f 45/3/3 39/6/3 7/7/3 37/8/3
f 38/4/4 45/3/4 37/8/4 3/9/4
f 6/28/13 18/29/13 48/30/13 34/31/13
f 18/29/14 2/32/14 33/33/14 48/30/14
f 48/30/15 33/33/15 11/34/15 30/35/15
f 34/31/16 48/30/16 30/35/16 9/36/16
f 4/54/29 25/55/29 52/56/29 36/57/29
f 25/55/30 8/18/30 35/58/30 52/56/30
f 52/56/31 35/58/31 10/59/31 31/60/31
f 36/57/32 52/56/32 31/60/32 12/51/32
f 8/19/33 17/61/33 53/62/33 35/63/33
f 17/61/34 6/28/34 34/31/34 53/62/34
f 53/62/35 34/31/35 9/36/35 29/64/35
f 35/63/36 53/62/36 29/64/36 10/65/36
f 2/32/37 28/66/37 54/67/37 33/33/37
f 28/66/38 4/54/38 36/57/38 54/67/38
f 54/67/39 36/57/39 12/51/39 32/50/39
f 33/33/40 54/67/40 32/50/40 11/34/40
